<mxfile host="app.diagrams.net" modified="2022-12-01T11:53:44.028Z" agent="5.0 (Windows NT 10.0; Win64; x64) AppleWebKit/537.36 (KHTML, like Gecko) Chrome/107.0.0.0 Safari/537.36" version="20.6.0" etag="gb2jsFcVszEbesBNsMrh" type="github">
  <diagram id="P9xUvt8hMESyPn9poZMn" name="Page-1">
    <mxGraphModel dx="1662" dy="754" grid="1" gridSize="10" guides="1" tooltips="1" connect="1" arrows="1" fold="1" page="1" pageScale="1" pageWidth="827" pageHeight="1169" math="0" shadow="0">
      <root>
        <mxCell id="0" />
        <mxCell id="1" parent="0" />
        <mxCell id="gay-0yqpT03MZjZcihIu-49" style="edgeStyle=orthogonalEdgeStyle;rounded=0;orthogonalLoop=1;jettySize=auto;html=1;exitX=0.5;exitY=1;exitDx=0;exitDy=0;exitPerimeter=0;entryX=0.5;entryY=0;entryDx=0;entryDy=0;" edge="1" parent="1" source="gay-0yqpT03MZjZcihIu-1" target="gay-0yqpT03MZjZcihIu-2">
          <mxGeometry relative="1" as="geometry" />
        </mxCell>
        <mxCell id="gay-0yqpT03MZjZcihIu-1" value="Start" style="strokeWidth=2;html=1;shape=mxgraph.flowchart.terminator;whiteSpace=wrap;fontSize=13;" vertex="1" parent="1">
          <mxGeometry x="60" y="10" width="60" height="30" as="geometry" />
        </mxCell>
        <mxCell id="gay-0yqpT03MZjZcihIu-15" style="edgeStyle=orthogonalEdgeStyle;rounded=0;orthogonalLoop=1;jettySize=auto;html=1;exitX=1;exitY=0.25;exitDx=0;exitDy=0;entryX=0.738;entryY=0.027;entryDx=0;entryDy=0;entryPerimeter=0;" edge="1" parent="1" source="gay-0yqpT03MZjZcihIu-2" target="gay-0yqpT03MZjZcihIu-9">
          <mxGeometry relative="1" as="geometry">
            <mxPoint x="351.98" y="77.5" as="targetPoint" />
            <Array as="points">
              <mxPoint x="426" y="85" />
            </Array>
          </mxGeometry>
        </mxCell>
        <mxCell id="gay-0yqpT03MZjZcihIu-21" style="edgeStyle=orthogonalEdgeStyle;rounded=0;orthogonalLoop=1;jettySize=auto;html=1;exitX=0.5;exitY=1;exitDx=0;exitDy=0;entryX=0.5;entryY=0;entryDx=0;entryDy=0;" edge="1" parent="1" source="gay-0yqpT03MZjZcihIu-2" target="gay-0yqpT03MZjZcihIu-5">
          <mxGeometry relative="1" as="geometry" />
        </mxCell>
        <mxCell id="gay-0yqpT03MZjZcihIu-2" value="API request&lt;br&gt;get data" style="rounded=1;whiteSpace=wrap;html=1;absoluteArcSize=1;arcSize=14;strokeWidth=2;" vertex="1" parent="1">
          <mxGeometry x="45" y="70" width="100" height="60" as="geometry" />
        </mxCell>
        <mxCell id="gay-0yqpT03MZjZcihIu-16" style="edgeStyle=orthogonalEdgeStyle;rounded=0;orthogonalLoop=1;jettySize=auto;html=1;exitX=0.5;exitY=0;exitDx=0;exitDy=0;exitPerimeter=0;entryX=1;entryY=0.5;entryDx=0;entryDy=0;" edge="1" parent="1" source="gay-0yqpT03MZjZcihIu-9" target="gay-0yqpT03MZjZcihIu-14">
          <mxGeometry relative="1" as="geometry">
            <mxPoint x="350" y="118.75" as="sourcePoint" />
            <Array as="points">
              <mxPoint x="395" y="115" />
            </Array>
          </mxGeometry>
        </mxCell>
        <mxCell id="gay-0yqpT03MZjZcihIu-22" style="edgeStyle=orthogonalEdgeStyle;rounded=0;orthogonalLoop=1;jettySize=auto;html=1;exitX=0.5;exitY=1;exitDx=0;exitDy=0;entryX=0.5;entryY=0;entryDx=0;entryDy=0;" edge="1" parent="1" source="gay-0yqpT03MZjZcihIu-5" target="gay-0yqpT03MZjZcihIu-8">
          <mxGeometry relative="1" as="geometry" />
        </mxCell>
        <mxCell id="gay-0yqpT03MZjZcihIu-5" value="Normalize&lt;br&gt;data" style="rounded=1;whiteSpace=wrap;html=1;absoluteArcSize=1;arcSize=14;strokeWidth=2;" vertex="1" parent="1">
          <mxGeometry x="45" y="150" width="100" height="50" as="geometry" />
        </mxCell>
        <mxCell id="gay-0yqpT03MZjZcihIu-27" style="edgeStyle=orthogonalEdgeStyle;rounded=0;orthogonalLoop=1;jettySize=auto;html=1;exitX=1;exitY=0.25;exitDx=0;exitDy=0;entryX=0.4;entryY=-0.007;entryDx=0;entryDy=0;entryPerimeter=0;" edge="1" parent="1" source="gay-0yqpT03MZjZcihIu-8" target="gay-0yqpT03MZjZcihIu-9">
          <mxGeometry relative="1" as="geometry" />
        </mxCell>
        <mxCell id="gay-0yqpT03MZjZcihIu-8" value="getBoosterVersion" style="rounded=1;whiteSpace=wrap;html=1;absoluteArcSize=1;arcSize=14;strokeWidth=2;" vertex="1" parent="1">
          <mxGeometry x="30" y="230" width="130" height="60" as="geometry" />
        </mxCell>
        <mxCell id="gay-0yqpT03MZjZcihIu-33" style="edgeStyle=orthogonalEdgeStyle;rounded=0;orthogonalLoop=1;jettySize=auto;html=1;exitX=0;exitY=0.547;exitDx=0;exitDy=0;exitPerimeter=0;entryX=1;entryY=0.25;entryDx=0;entryDy=0;" edge="1" parent="1" source="gay-0yqpT03MZjZcihIu-9" target="gay-0yqpT03MZjZcihIu-26">
          <mxGeometry relative="1" as="geometry" />
        </mxCell>
        <mxCell id="gay-0yqpT03MZjZcihIu-9" value="&lt;br&gt;SpaceX&lt;br&gt;API" style="strokeWidth=2;html=1;shape=mxgraph.flowchart.database;whiteSpace=wrap;" vertex="1" parent="1">
          <mxGeometry x="330" y="280" width="130" height="150" as="geometry" />
        </mxCell>
        <mxCell id="gay-0yqpT03MZjZcihIu-46" style="edgeStyle=orthogonalEdgeStyle;rounded=0;orthogonalLoop=1;jettySize=auto;html=1;exitX=0.5;exitY=1;exitDx=0;exitDy=0;entryX=0.5;entryY=0;entryDx=0;entryDy=0;" edge="1" parent="1" source="gay-0yqpT03MZjZcihIu-10" target="gay-0yqpT03MZjZcihIu-11">
          <mxGeometry relative="1" as="geometry" />
        </mxCell>
        <mxCell id="gay-0yqpT03MZjZcihIu-10" value="Create&amp;nbsp;&lt;br&gt;DataFrame with&lt;br&gt;data" style="rounded=1;whiteSpace=wrap;html=1;absoluteArcSize=1;arcSize=14;strokeWidth=2;" vertex="1" parent="1">
          <mxGeometry x="610" y="70" width="100" height="90" as="geometry" />
        </mxCell>
        <mxCell id="gay-0yqpT03MZjZcihIu-47" style="edgeStyle=orthogonalEdgeStyle;rounded=0;orthogonalLoop=1;jettySize=auto;html=1;exitX=0.5;exitY=1;exitDx=0;exitDy=0;" edge="1" parent="1" source="gay-0yqpT03MZjZcihIu-11" target="gay-0yqpT03MZjZcihIu-12">
          <mxGeometry relative="1" as="geometry" />
        </mxCell>
        <mxCell id="gay-0yqpT03MZjZcihIu-11" value="Remove&amp;nbsp;&lt;br&gt;data of&lt;br&gt;Falcon 1" style="rounded=1;whiteSpace=wrap;html=1;absoluteArcSize=1;arcSize=14;strokeWidth=2;" vertex="1" parent="1">
          <mxGeometry x="610" y="190" width="100" height="70" as="geometry" />
        </mxCell>
        <mxCell id="gay-0yqpT03MZjZcihIu-48" style="edgeStyle=orthogonalEdgeStyle;rounded=0;orthogonalLoop=1;jettySize=auto;html=1;exitX=0.5;exitY=1;exitDx=0;exitDy=0;entryX=0.5;entryY=0;entryDx=0;entryDy=0;" edge="1" parent="1" source="gay-0yqpT03MZjZcihIu-12" target="gay-0yqpT03MZjZcihIu-13">
          <mxGeometry relative="1" as="geometry" />
        </mxCell>
        <mxCell id="gay-0yqpT03MZjZcihIu-12" value="Substitute null&lt;br&gt;payloadmass values &lt;br&gt;with the mean value" style="rounded=1;whiteSpace=wrap;html=1;absoluteArcSize=1;arcSize=14;strokeWidth=2;" vertex="1" parent="1">
          <mxGeometry x="610" y="290" width="100" height="100" as="geometry" />
        </mxCell>
        <mxCell id="gay-0yqpT03MZjZcihIu-13" value="Generate&lt;br&gt;csv file" style="shape=parallelogram;html=1;strokeWidth=2;perimeter=parallelogramPerimeter;whiteSpace=wrap;rounded=1;arcSize=12;size=0.23;" vertex="1" parent="1">
          <mxGeometry x="610" y="420" width="100" height="60" as="geometry" />
        </mxCell>
        <mxCell id="gay-0yqpT03MZjZcihIu-17" style="edgeStyle=orthogonalEdgeStyle;rounded=0;orthogonalLoop=1;jettySize=auto;html=1;exitX=0;exitY=0.5;exitDx=0;exitDy=0;entryX=1;entryY=0.75;entryDx=0;entryDy=0;" edge="1" parent="1" source="gay-0yqpT03MZjZcihIu-14" target="gay-0yqpT03MZjZcihIu-2">
          <mxGeometry relative="1" as="geometry" />
        </mxCell>
        <mxCell id="gay-0yqpT03MZjZcihIu-14" value="data" style="shape=parallelogram;html=1;strokeWidth=2;perimeter=parallelogramPerimeter;whiteSpace=wrap;rounded=1;arcSize=12;size=0.23;" vertex="1" parent="1">
          <mxGeometry x="180" y="95" width="70" height="40" as="geometry" />
        </mxCell>
        <mxCell id="gay-0yqpT03MZjZcihIu-40" style="edgeStyle=orthogonalEdgeStyle;rounded=0;orthogonalLoop=1;jettySize=auto;html=1;exitX=1;exitY=0.25;exitDx=0;exitDy=0;entryX=0.346;entryY=0.993;entryDx=0;entryDy=0;entryPerimeter=0;" edge="1" parent="1" source="gay-0yqpT03MZjZcihIu-18" target="gay-0yqpT03MZjZcihIu-9">
          <mxGeometry relative="1" as="geometry" />
        </mxCell>
        <mxCell id="gay-0yqpT03MZjZcihIu-45" style="edgeStyle=orthogonalEdgeStyle;rounded=0;orthogonalLoop=1;jettySize=auto;html=1;exitX=0.5;exitY=1;exitDx=0;exitDy=0;entryX=0.5;entryY=0;entryDx=0;entryDy=0;" edge="1" parent="1" source="gay-0yqpT03MZjZcihIu-18" target="gay-0yqpT03MZjZcihIu-10">
          <mxGeometry relative="1" as="geometry">
            <mxPoint x="570" y="40" as="targetPoint" />
            <Array as="points">
              <mxPoint x="95" y="620" />
              <mxPoint x="510" y="620" />
              <mxPoint x="510" y="40" />
              <mxPoint x="660" y="40" />
            </Array>
          </mxGeometry>
        </mxCell>
        <mxCell id="gay-0yqpT03MZjZcihIu-18" value="getLaunchSite" style="rounded=1;whiteSpace=wrap;html=1;absoluteArcSize=1;arcSize=14;strokeWidth=2;" vertex="1" parent="1">
          <mxGeometry x="30" y="500" width="130" height="60" as="geometry" />
        </mxCell>
        <mxCell id="gay-0yqpT03MZjZcihIu-32" style="edgeStyle=orthogonalEdgeStyle;rounded=0;orthogonalLoop=1;jettySize=auto;html=1;exitX=1;exitY=0.25;exitDx=0;exitDy=0;entryX=-0.023;entryY=0.367;entryDx=0;entryDy=0;entryPerimeter=0;" edge="1" parent="1" source="gay-0yqpT03MZjZcihIu-19" target="gay-0yqpT03MZjZcihIu-9">
          <mxGeometry relative="1" as="geometry" />
        </mxCell>
        <mxCell id="gay-0yqpT03MZjZcihIu-19" value="getPayloadData" style="rounded=1;whiteSpace=wrap;html=1;absoluteArcSize=1;arcSize=14;strokeWidth=2;" vertex="1" parent="1">
          <mxGeometry x="31.25" y="320" width="127.5" height="60" as="geometry" />
        </mxCell>
        <mxCell id="gay-0yqpT03MZjZcihIu-35" style="edgeStyle=orthogonalEdgeStyle;rounded=0;orthogonalLoop=1;jettySize=auto;html=1;exitX=1;exitY=0.25;exitDx=0;exitDy=0;entryX=0;entryY=0.85;entryDx=0;entryDy=0;entryPerimeter=0;" edge="1" parent="1" source="gay-0yqpT03MZjZcihIu-20" target="gay-0yqpT03MZjZcihIu-9">
          <mxGeometry relative="1" as="geometry" />
        </mxCell>
        <mxCell id="gay-0yqpT03MZjZcihIu-20" value="getCoreData" style="rounded=1;whiteSpace=wrap;html=1;absoluteArcSize=1;arcSize=14;strokeWidth=2;" vertex="1" parent="1">
          <mxGeometry x="30" y="410" width="130" height="60" as="geometry" />
        </mxCell>
        <mxCell id="gay-0yqpT03MZjZcihIu-31" style="edgeStyle=orthogonalEdgeStyle;rounded=0;orthogonalLoop=1;jettySize=auto;html=1;exitX=0;exitY=0.25;exitDx=0;exitDy=0;entryX=1;entryY=0.75;entryDx=0;entryDy=0;" edge="1" parent="1" source="gay-0yqpT03MZjZcihIu-23" target="gay-0yqpT03MZjZcihIu-8">
          <mxGeometry relative="1" as="geometry" />
        </mxCell>
        <mxCell id="gay-0yqpT03MZjZcihIu-23" value="Booster&lt;br&gt;Version" style="shape=parallelogram;html=1;strokeWidth=2;perimeter=parallelogramPerimeter;whiteSpace=wrap;rounded=1;arcSize=12;size=0.23;" vertex="1" parent="1">
          <mxGeometry x="190" y="260" width="100" height="40" as="geometry" />
        </mxCell>
        <mxCell id="gay-0yqpT03MZjZcihIu-38" style="edgeStyle=orthogonalEdgeStyle;rounded=0;orthogonalLoop=1;jettySize=auto;html=1;exitX=0;exitY=0.25;exitDx=0;exitDy=0;entryX=1;entryY=0.75;entryDx=0;entryDy=0;" edge="1" parent="1" source="gay-0yqpT03MZjZcihIu-24" target="gay-0yqpT03MZjZcihIu-20">
          <mxGeometry relative="1" as="geometry" />
        </mxCell>
        <mxCell id="gay-0yqpT03MZjZcihIu-24" value="Core&lt;br&gt;Data" style="shape=parallelogram;html=1;strokeWidth=2;perimeter=parallelogramPerimeter;whiteSpace=wrap;rounded=1;arcSize=12;size=0.23;" vertex="1" parent="1">
          <mxGeometry x="190" y="440" width="100" height="40" as="geometry" />
        </mxCell>
        <mxCell id="gay-0yqpT03MZjZcihIu-42" style="edgeStyle=orthogonalEdgeStyle;rounded=0;orthogonalLoop=1;jettySize=auto;html=1;exitX=0;exitY=0.25;exitDx=0;exitDy=0;entryX=1;entryY=0.75;entryDx=0;entryDy=0;" edge="1" parent="1" source="gay-0yqpT03MZjZcihIu-25" target="gay-0yqpT03MZjZcihIu-18">
          <mxGeometry relative="1" as="geometry" />
        </mxCell>
        <mxCell id="gay-0yqpT03MZjZcihIu-25" value="Launch&lt;br&gt;Site Data" style="shape=parallelogram;html=1;strokeWidth=2;perimeter=parallelogramPerimeter;whiteSpace=wrap;rounded=1;arcSize=12;size=0.23;" vertex="1" parent="1">
          <mxGeometry x="190" y="530" width="100" height="40" as="geometry" />
        </mxCell>
        <mxCell id="gay-0yqpT03MZjZcihIu-34" style="edgeStyle=orthogonalEdgeStyle;rounded=0;orthogonalLoop=1;jettySize=auto;html=1;exitX=0;exitY=0.25;exitDx=0;exitDy=0;entryX=0.994;entryY=0.633;entryDx=0;entryDy=0;entryPerimeter=0;" edge="1" parent="1" source="gay-0yqpT03MZjZcihIu-26" target="gay-0yqpT03MZjZcihIu-19">
          <mxGeometry relative="1" as="geometry">
            <Array as="points">
              <mxPoint x="206" y="358" />
            </Array>
          </mxGeometry>
        </mxCell>
        <mxCell id="gay-0yqpT03MZjZcihIu-26" value="Payload&lt;br&gt;Data" style="shape=parallelogram;html=1;strokeWidth=2;perimeter=parallelogramPerimeter;whiteSpace=wrap;rounded=1;arcSize=12;size=0.23;" vertex="1" parent="1">
          <mxGeometry x="190" y="350" width="100" height="40" as="geometry" />
        </mxCell>
        <mxCell id="gay-0yqpT03MZjZcihIu-30" value="" style="endArrow=classic;html=1;rounded=0;entryX=1;entryY=0.5;entryDx=0;entryDy=0;exitX=0.015;exitY=0.087;exitDx=0;exitDy=0;exitPerimeter=0;" edge="1" parent="1" source="gay-0yqpT03MZjZcihIu-9" target="gay-0yqpT03MZjZcihIu-23">
          <mxGeometry width="50" height="50" relative="1" as="geometry">
            <mxPoint x="280" y="370" as="sourcePoint" />
            <mxPoint x="330" y="320" as="targetPoint" />
            <Array as="points">
              <mxPoint x="310" y="280" />
            </Array>
          </mxGeometry>
        </mxCell>
        <mxCell id="gay-0yqpT03MZjZcihIu-37" value="" style="endArrow=classic;html=1;rounded=0;entryX=1;entryY=0.25;entryDx=0;entryDy=0;exitX=0.154;exitY=0.947;exitDx=0;exitDy=0;exitPerimeter=0;" edge="1" parent="1" source="gay-0yqpT03MZjZcihIu-9" target="gay-0yqpT03MZjZcihIu-24">
          <mxGeometry width="50" height="50" relative="1" as="geometry">
            <mxPoint x="350" y="550" as="sourcePoint" />
            <mxPoint x="330" y="320" as="targetPoint" />
            <Array as="points">
              <mxPoint x="330" y="450" />
            </Array>
          </mxGeometry>
        </mxCell>
        <mxCell id="gay-0yqpT03MZjZcihIu-41" value="" style="endArrow=classic;html=1;rounded=0;" edge="1" parent="1" source="gay-0yqpT03MZjZcihIu-9" target="gay-0yqpT03MZjZcihIu-25">
          <mxGeometry width="50" height="50" relative="1" as="geometry">
            <mxPoint x="280" y="370" as="sourcePoint" />
            <mxPoint x="290" y="640" as="targetPoint" />
            <Array as="points">
              <mxPoint x="390" y="550" />
            </Array>
          </mxGeometry>
        </mxCell>
        <mxCell id="gay-0yqpT03MZjZcihIu-50" value="End" style="strokeWidth=2;html=1;shape=mxgraph.flowchart.terminator;whiteSpace=wrap;fontSize=13;" vertex="1" parent="1">
          <mxGeometry x="630" y="500" width="60" height="30" as="geometry" />
        </mxCell>
      </root>
    </mxGraphModel>
  </diagram>
</mxfile>
